{
	"asset":{
		"generator":"Khronos glTF Blender I/O v3.6.27",
		"version":"2.0"
	},
	"extensionsUsed":[
		"KHR_materials_specular",
		"KHR_materials_ior"
	],
	"scene":0,
	"scenes":[
		{
			"name":"Scene",
			"nodes":[
				13
			]
		}
	],
	"nodes":[
		{
			"mesh":0,
			"name":"Body1.392",
			"scale":[
				10,
				10,
				10
			],
			"translation":[
				0.0001220703125,
				0.0001449304400011897,
				695.2498779296875
			]
		},
		{
			"children":[
				0
			],
			"name":"Antenna Mast",
			"translation":[
				0.0001220703125,
				-0.00019262314890511334,
				4.939085920341313e-05
			]
		},
		{
			"children":[
				1
			],
			"name":"Antenna Mast:1",
			"translation":[
				0.0001220703125,
				-0.00019262314890511334,
				4.939083009958267e-05
			]
		},
		{
			"mesh":1,
			"name":"Body1.002",
			"scale":[
				10,
				10,
				10
			],
			"translation":[
				0,
				-1.0115059922100045e-05,
				0
			]
		},
		{
			"mesh":2,
			"name":"Body3",
			"scale":[
				10,
				10,
				10
			],
			"translation":[
				0,
				-1.0115059922100045e-05,
				0
			]
		},
		{
			"children":[
				3,
				4
			],
			"name":"Antenna",
			"translation":[
				0,
				-1.035348032019101e-05,
				0
			]
		},
		{
			"children":[
				5
			],
			"name":"Antenna:1",
			"rotation":[
				0,
				0,
				1,
				4.371138118131057e-08
			],
			"translation":[
				-1682.2791748046875,
				2187.0458984375,
				-247.22947692871094
			]
		},
		{
			"mesh":3,
			"name":"Body1.393",
			"scale":[
				10,
				10,
				10
			],
			"translation":[
				0,
				0.00014492565242107958,
				695.2499389648438
			]
		},
		{
			"children":[
				7
			],
			"name":"Bolt",
			"translation":[
				0,
				-0.0001926279510371387,
				1.887328107841313e-05
			]
		},
		{
			"children":[
				8
			],
			"name":"Bolt:1",
			"translation":[
				-29.9970703125,
				-0.0001926279510371387,
				-0.03565617650747299
			]
		},
		{
			"mesh":4,
			"name":"Body1.394",
			"scale":[
				10,
				10,
				10
			],
			"translation":[
				0.0001220703125,
				0.00014491200272459537,
				695.2498779296875
			]
		},
		{
			"children":[
				10
			],
			"name":"Nut",
			"translation":[
				0.0001220703125,
				-0.00019264158618170768,
				4.939091741107404e-05
			]
		},
		{
			"children":[
				11
			],
			"name":"Nut:1",
			"translation":[
				0.0001220703125,
				-0.0006809228216297925,
				-0.1372491866350174
			]
		},
		{
			"children":[
				2,
				6,
				9,
				12
			],
			"name":"Apollo_11_PSEP_11 v1",
			"rotation":[
				0.70710688829422,
				0,
				0,
				0.7071066498756409
			],
			"scale":[
				0.0010000000474974513,
				0.0010000001639127731,
				0.0010000001639127731
			],
			"translation":[
				1.6841057538986206,
				-0.3834320604801178,
				-2.184683084487915
			]
		}
	],
	"materials":[
		{
			"doubleSided":true,
			"extensions":{
				"KHR_materials_specular":{
					"specularColorFactor":[
						2.371357614441398,
						2.371357614441398,
						2.371357614441398
					]
				},
				"KHR_materials_ior":{
					"ior":1.4500000476837158
				}
			},
			"name":"ABS (White)",
			"pbrMetallicRoughness":{
				"baseColorFactor":[
					0.9647058844566345,
					0.9647058844566345,
					0.9529411792755127,
					1
				],
				"roughnessFactor":0.5527864098548889
			}
		},
		{
			"doubleSided":true,
			"extensions":{
				"KHR_materials_specular":{
					"specularColorFactor":[
						2.371357614441398,
						2.371357614441398,
						2.371357614441398
					]
				},
				"KHR_materials_ior":{
					"ior":1.4500000476837158
				}
			},
			"name":"Steel - Satin",
			"pbrMetallicRoughness":{
				"baseColorFactor":[
					0.6274510025978088,
					0.6274510025978088,
					0.6274510025978088,
					1
				],
				"roughnessFactor":0.5527864098548889
			}
		}
	],
	"meshes":[
		{
			"name":"Body1.030",
			"primitives":[
				{
					"attributes":{
						"POSITION":0,
						"NORMAL":1,
						"TEXCOORD_0":2
					},
					"indices":3,
					"material":0
				}
			]
		},
		{
			"name":"Body1.002",
			"primitives":[
				{
					"attributes":{
						"POSITION":4,
						"NORMAL":5,
						"TEXCOORD_0":6
					},
					"indices":7,
					"material":0
				}
			]
		},
		{
			"name":"Body3",
			"primitives":[
				{
					"attributes":{
						"POSITION":8,
						"NORMAL":9,
						"TEXCOORD_0":10
					},
					"indices":11,
					"material":0
				}
			]
		},
		{
			"name":"Body1.031",
			"primitives":[
				{
					"attributes":{
						"POSITION":12,
						"NORMAL":13,
						"TEXCOORD_0":14
					},
					"indices":15,
					"material":1
				}
			]
		},
		{
			"name":"Body1.032",
			"primitives":[
				{
					"attributes":{
						"POSITION":16,
						"NORMAL":17,
						"TEXCOORD_0":18
					},
					"indices":19,
					"material":1
				}
			]
		}
	],
	"accessors":[
		{
			"bufferView":0,
			"componentType":5126,
			"count":5873,
			"max":[
				-164.47793579101562,
				222.70458984375,
				-40.01240921020508
			],
			"min":[
				-171.97793579101562,
				215.20458984375,
				-90.01240539550781
			],
			"type":"VEC3"
		},
		{
			"bufferView":1,
			"componentType":5126,
			"count":5873,
			"type":"VEC3"
		},
		{
			"bufferView":2,
			"componentType":5126,
			"count":5873,
			"type":"VEC2"
		},
		{
			"bufferView":3,
			"componentType":5123,
			"count":19368,
			"type":"SCALAR"
		},
		{
			"bufferView":4,
			"componentType":5126,
			"count":5804,
			"max":[
				7.5,
				7.5,
				3.535533905029297
			],
			"min":[
				-7.5,
				-7.5,
				-77.9000015258789
			],
			"type":"VEC3"
		},
		{
			"bufferView":5,
			"componentType":5126,
			"count":5804,
			"type":"VEC3"
		},
		{
			"bufferView":6,
			"componentType":5126,
			"count":5804,
			"type":"VEC2"
		},
		{
			"bufferView":7,
			"componentType":5123,
			"count":20880,
			"type":"SCALAR"
		},
		{
			"bufferView":8,
			"componentType":5126,
			"count":4389,
			"max":[
				0.5,
				1.25,
				5.535534858703613
			],
			"min":[
				-0.5,
				-1.25,
				3.535533905029297
			],
			"type":"VEC3"
		},
		{
			"bufferView":9,
			"componentType":5126,
			"count":4389,
			"type":"VEC3"
		},
		{
			"bufferView":10,
			"componentType":5126,
			"count":4389,
			"type":"VEC2"
		},
		{
			"bufferView":11,
			"componentType":5123,
			"count":15336,
			"type":"SCALAR"
		},
		{
			"bufferView":12,
			"componentType":5126,
			"count":12896,
			"max":[
				-163.47793579101562,
				219.20458984375,
				-88.76240539550781
			],
			"min":[
				-166.97793579101562,
				218.20458984375,
				-89.76240539550781
			],
			"type":"VEC3"
		},
		{
			"bufferView":13,
			"componentType":5126,
			"count":12896,
			"type":"VEC3"
		},
		{
			"bufferView":14,
			"componentType":5126,
			"count":12896,
			"type":"VEC2"
		},
		{
			"bufferView":15,
			"componentType":5123,
			"count":44598,
			"type":"SCALAR"
		},
		{
			"bufferView":16,
			"componentType":5126,
			"count":2713,
			"max":[
				-169.4776611328125,
				219.2819366455078,
				-88.76597595214844
			],
			"min":[
				-169.9776611328125,
				218.1272430419922,
				-89.76597595214844
			],
			"type":"VEC3"
		},
		{
			"bufferView":17,
			"componentType":5126,
			"count":2713,
			"type":"VEC3"
		},
		{
			"bufferView":18,
			"componentType":5126,
			"count":2713,
			"type":"VEC2"
		},
		{
			"bufferView":19,
			"componentType":5123,
			"count":9642,
			"type":"SCALAR"
		}
	],
	"bufferViews":[
		{
			"buffer":0,
			"byteLength":70476,
			"byteOffset":0,
			"target":34962
		},
		{
			"buffer":0,
			"byteLength":70476,
			"byteOffset":70476,
			"target":34962
		},
		{
			"buffer":0,
			"byteLength":46984,
			"byteOffset":140952,
			"target":34962
		},
		{
			"buffer":0,
			"byteLength":38736,
			"byteOffset":187936,
			"target":34963
		},
		{
			"buffer":0,
			"byteLength":69648,
			"byteOffset":226672,
			"target":34962
		},
		{
			"buffer":0,
			"byteLength":69648,
			"byteOffset":296320,
			"target":34962
		},
		{
			"buffer":0,
			"byteLength":46432,
			"byteOffset":365968,
			"target":34962
		},
		{
			"buffer":0,
			"byteLength":41760,
			"byteOffset":412400,
			"target":34963
		},
		{
			"buffer":0,
			"byteLength":52668,
			"byteOffset":454160,
			"target":34962
		},
		{
			"buffer":0,
			"byteLength":52668,
			"byteOffset":506828,
			"target":34962
		},
		{
			"buffer":0,
			"byteLength":35112,
			"byteOffset":559496,
			"target":34962
		},
		{
			"buffer":0,
			"byteLength":30672,
			"byteOffset":594608,
			"target":34963
		},
		{
			"buffer":0,
			"byteLength":154752,
			"byteOffset":625280,
			"target":34962
		},
		{
			"buffer":0,
			"byteLength":154752,
			"byteOffset":780032,
			"target":34962
		},
		{
			"buffer":0,
			"byteLength":103168,
			"byteOffset":934784,
			"target":34962
		},
		{
			"buffer":0,
			"byteLength":89196,
			"byteOffset":1037952,
			"target":34963
		},
		{
			"buffer":0,
			"byteLength":32556,
			"byteOffset":1127148,
			"target":34962
		},
		{
			"buffer":0,
			"byteLength":32556,
			"byteOffset":1159704,
			"target":34962
		},
		{
			"buffer":0,
			"byteLength":21704,
			"byteOffset":1192260,
			"target":34962
		},
		{
			"buffer":0,
			"byteLength":19284,
			"byteOffset":1213964,
			"target":34963
		}
	],
	"buffers":[
		{
			"byteLength":1233248,
			"uri":"data:application/octet-stream;base64,"
		}
	]
}
