{
	"asset":{
		"generator":"Khronos glTF Blender I/O v3.6.27",
		"version":"2.0"
	},
	"extensionsUsed":[
		"KHR_materials_specular",
		"KHR_materials_ior"
	],
	"scene":0,
	"scenes":[
		{
			"name":"Scene",
			"nodes":[
				6
			]
		}
	],
	"nodes":[
		{
			"mesh":0,
			"name":"Body1.005",
			"scale":[
				10,
				10,
				10
			],
			"translation":[
				-6.103515625e-05,
				8.491209882777184e-06,
				7.2129289037548e-05
			]
		},
		{
			"children":[
				0
			],
			"name":"Isotope Heater 1",
			"translation":[
				-6.103515625e-05,
				8.49120260681957e-06,
				7.2129289037548e-05
			]
		},
		{
			"children":[
				1
			],
			"name":"Isotope Heater 1:1",
			"translation":[
				-1809.947021484375,
				1739.3759765625,
				361.1703186035156
			]
		},
		{
			"mesh":1,
			"name":"Body1.006",
			"scale":[
				10,
				10,
				10
			],
			"translation":[
				-3.5762786865234375e-06,
				8.491209882777184e-06,
				7.2129289037548e-05
			]
		},
		{
			"children":[
				3
			],
			"name":"Isotope Heater 2",
			"translation":[
				-4.0531158447265625e-06,
				8.49120260681957e-06,
				7.2129289037548e-05
			]
		},
		{
			"children":[
				4
			],
			"name":"Isotope Heater 2:1",
			"translation":[
				-1459.947021484375,
				1739.3759765625,
				361.1703186035156
			]
		},
		{
			"children":[
				2,
				5
			],
			"name":"Apollo_11_PSEP_11 v1",
			"rotation":[
				0.70710688829422,
				0,
				0,
				0.7071066498756409
			],
			"scale":[
				0.0010000000474974513,
				0.0010000001639127731,
				0.0010000001639127731
			],
			"translation":[
				1.4561598300933838,
				-0.3834320604801178,
				-1.8219470977783203
			]
		}
	],
	"materials":[
		{
			"doubleSided":true,
			"extensions":{
				"KHR_materials_specular":{
					"specularColorFactor":[
						2.371357614441398,
						2.371357614441398,
						2.371357614441398
					]
				},
				"KHR_materials_ior":{
					"ior":1.4500000476837158
				}
			},
			"name":"Copper - Polished (1)",
			"pbrMetallicRoughness":{
				"baseColorFactor":[
					1,
					0.6549019813537598,
					0.5490196347236633,
					1
				],
				"roughnessFactor":0.5527864098548889
			}
		}
	],
	"meshes":[
		{
			"name":"Body1.005",
			"primitives":[
				{
					"attributes":{
						"POSITION":0,
						"NORMAL":1,
						"TEXCOORD_0":2
					},
					"indices":3,
					"material":0
				}
			]
		},
		{
			"name":"Body1.006",
			"primitives":[
				{
					"attributes":{
						"POSITION":4,
						"NORMAL":5,
						"TEXCOORD_0":6
					},
					"indices":3,
					"material":0
				}
			]
		}
	],
	"accessors":[
		{
			"bufferView":0,
			"componentType":5126,
			"count":627,
			"max":[
				24.095781326293945,
				13.03512954711914,
				-71.09044647216797
			],
			"min":[
				14.095780372619629,
				3.0351290702819824,
				-78.69044494628906
			],
			"type":"VEC3"
		},
		{
			"bufferView":1,
			"componentType":5126,
			"count":627,
			"type":"VEC3"
		},
		{
			"bufferView":2,
			"componentType":5126,
			"count":627,
			"type":"VEC2"
		},
		{
			"bufferView":3,
			"componentType":5123,
			"count":2184,
			"type":"SCALAR"
		},
		{
			"bufferView":4,
			"componentType":5126,
			"count":627,
			"max":[
				24.095781326293945,
				13.03512954711914,
				-71.09044647216797
			],
			"min":[
				14.095780372619629,
				3.0351290702819824,
				-78.69044494628906
			],
			"type":"VEC3"
		},
		{
			"bufferView":5,
			"componentType":5126,
			"count":627,
			"type":"VEC3"
		},
		{
			"bufferView":6,
			"componentType":5126,
			"count":627,
			"type":"VEC2"
		}
	],
	"bufferViews":[
		{
			"buffer":0,
			"byteLength":7524,
			"byteOffset":0,
			"target":34962
		},
		{
			"buffer":0,
			"byteLength":7524,
			"byteOffset":7524,
			"target":34962
		},
		{
			"buffer":0,
			"byteLength":5016,
			"byteOffset":15048,
			"target":34962
		},
		{
			"buffer":0,
			"byteLength":4368,
			"byteOffset":20064,
			"target":34963
		},
		{
			"buffer":0,
			"byteLength":7524,
			"byteOffset":24432,
			"target":34962
		},
		{
			"buffer":0,
			"byteLength":7524,
			"byteOffset":31956,
			"target":34962
		},
		{
			"buffer":0,
			"byteLength":5016,
			"byteOffset":39480,
			"target":34962
		}
	],
	"buffers":[
		{
			"byteLength":44496,
			"uri":"data:application/octet-stream;base64,"
		}
	]
}
